<svg xmlns="http://www.w3.org/2000/svg" width="110" height="135" fill="none" viewBox="0 0 110 135"><path fill="#3b82f6" d="M37.031 90.32c-1.262 1.89-1.371 4.219-.3 6.219s3.07 3.199 5.339 3.199h25.859c2.27 0 4.27-1.2 5.34-3.2s.96-4.327-.301-6.218l-12.93-19.398a6.05 6.05 0 0 0-5.04-2.7 6.04 6.04 0 0 0-5.038 2.7z"/><path fill="#3b82f6" d="M19.922 92.141a2.72 2.72 0 0 0 2.23 1.059 2.66 2.66 0 0 0 2.149-1.141c.7-.969.672-2.309-.07-3.25-5.43-6.91-8.301-15.23-8.301-24.051 0-10.738 4.488-21.129 12.328-28.488 7.941-7.46 18.352-11.191 29.262-10.512C77.122 26.988 92.8 42.699 94 62.309c.578 9.59-2.328 19-8.219 26.488-.75.96-.781 2.27-.078 3.25.5.7 1.289 1.121 2.148 1.14.86.02 1.7-.37 2.239-1.07 6.449-8.261 9.78-18.602 9.37-29.129-.87-22.43-19.07-41.16-41.448-42.64-1.02-.071-2.04-.102-3.051-.102-11.352 0-22.04 4.199-30.371 12.012-8.961 8.39-14.09 20.23-14.09 32.488 0 10.03 3.262 19.5 9.422 27.379z"/><path fill="#3b82f6" d="M80.078 82.059a2.74 2.74 0 0 0 2.262-1.379c3.379-5.789 4.808-12.41 4.14-19.16-1.52-15.3-14.27-27.488-29.648-28.359a37 37 0 0 0-1.851-.05c-8.13 0-15.781 3.03-21.711 8.64-6.39 6.039-9.91 14.21-9.91 23a31.64 31.64 0 0 0 4.3 15.93 2.79 2.79 0 0 0 2.27 1.379c.949.039 1.781-.371 2.32-1.13a2.73 2.73 0 0 0 .121-2.968 26.1 26.1 0 0 1-3.578-13.199c0-7.262 2.899-14.012 8.16-19.012 5.25-4.988 12.141-7.55 19.43-7.172 13.48.692 24.391 11.801 24.828 25.301.16 4.969-1.07 9.84-3.57 14.102-.55.93-.5 2.09.121 2.961a2.64 2.64 0 0 0 2.32 1.129z"/><path fill="#3b82f6" d="M56.41 51.469c5.86.602 10.801 5.23 11.762 11 .219 1.328.25 2.68.078 4-.078.629.09 1.281.488 1.84.801 1.12 2.02 1.281 2.899 1.058.86-.218 1.84-.922 2-2.25.12-.941.16-1.898.14-2.851-.25-9.719-8.05-17.738-17.75-18.262q-.528-.031-1.039-.032c-4.828 0-9.379 1.81-12.91 5.149-3.78 3.59-5.87 8.43-5.87 13.629 0 .808.05 1.621.148 2.422.172 1.3 1.129 1.988 1.98 2.199.88.219 2.11.059 2.91-1.059.399-.558.57-1.218.489-1.859-.07-.559-.11-1.129-.11-1.691 0-3.77 1.61-7.391 4.41-9.922 2.84-2.559 6.52-3.762 10.353-3.371z"/></svg>